<svg width="146" height="114" viewBox="0 0 146 114" fill="none" xmlns="http://www.w3.org/2000/svg">
<path d="M136.984 0L138.875 8.46151L40.27 29.2052L38.3794 20.7437L136.984 0Z" fill="#023C02"/>
<path d="M129.388 12.7279L131.278 21.1894L42.6451 39.8354L40.7545 31.3739L129.388 12.7279Z" fill="#023C02"/>
<path d="M125.116 24.7566L127.006 33.2181L45.0203 50.4656L43.1297 42.0041L125.116 24.7566Z" fill="#023C02"/>
<path d="M119.181 37.1349L121.072 45.5964L47.3955 61.0959L45.5049 52.6343L119.181 37.1349Z" fill="#023C02"/>
<path d="M8.70847 113.654L6.88237 105.179L105.642 85.1433L107.468 93.6181L8.70847 113.654Z" fill="#066006"/>
<path d="M16.4013 100.981L14.5752 92.5062L103.348 74.4963L105.174 82.9712L16.4013 100.981Z" fill="#066006"/>
<path d="M20.7651 88.9833L18.939 80.5085L101.054 63.8494L102.88 72.3242L20.7651 88.9833Z" fill="#066006"/>
<path d="M26.7935 76.6479L24.9674 68.1731L98.7598 53.2024L100.586 61.6772L26.7935 76.6479Z" fill="#066006"/>
</svg>
