<svg width="516" height="171" viewBox="0 0 516 171" fill="none" xmlns="http://www.w3.org/2000/svg">
<path d="M136.984 35L138.875 43.4615L40.27 64.2052L38.3794 55.7437L136.984 35Z" fill="#BCFFBC"/>
<path d="M129.388 47.7279L131.278 56.1894L42.6451 74.8354L40.7545 66.3739L129.388 47.7279Z" fill="#BCFFBC"/>
<path d="M125.116 59.7566L127.006 68.2181L45.0203 85.4656L43.1297 77.0041L125.116 59.7566Z" fill="#BCFFBC"/>
<path d="M119.181 72.1349L121.072 80.5964L47.3955 96.0959L45.5049 87.6343L119.181 72.1349Z" fill="#BCFFBC"/>
<path d="M8.70847 148.654L6.88237 140.179L105.642 120.143L107.468 128.618L8.70847 148.654Z" fill="#EDFFED"/>
<path d="M16.4013 135.981L14.5752 127.506L103.348 109.496L105.174 117.971L16.4013 135.981Z" fill="#EDFFED"/>
<path d="M20.7651 123.983L18.939 115.508L101.054 98.8494L102.88 107.324L20.7651 123.983Z" fill="#EDFFED"/>
<path d="M26.7935 111.648L24.9674 103.173L98.7598 88.2024L100.586 96.6772L26.7935 111.648Z" fill="#EDFFED"/>
<path d="M155.444 129.067C152.304 129.067 149.341 128.622 146.556 127.733C143.77 126.844 141.281 125.659 139.089 124.178C136.896 122.696 135.03 121.067 133.489 119.289L136.422 107.022C137.548 109.215 139.03 111.319 140.867 113.333C142.704 115.289 144.867 116.889 147.356 118.133C149.904 119.378 152.719 120 155.8 120C158.644 120 161.163 119.407 163.356 118.222C165.548 116.978 167.267 115.319 168.511 113.244C169.756 111.111 170.378 108.741 170.378 106.133C170.378 103.289 169.696 100.948 168.333 99.1111C166.97 97.2741 165.43 95.8222 163.711 94.7556C161.993 93.6889 160.63 92.9185 159.622 92.4444L149.844 87.4667C148.304 86.637 146.378 85.4815 144.067 84C141.815 82.5185 139.83 80.4741 138.111 77.8667C136.393 75.2593 135.533 71.8815 135.533 67.7333C135.533 64.7111 136.067 61.9259 137.133 59.3778C138.2 56.8296 139.711 54.637 141.667 52.8C143.681 50.963 146.022 49.5407 148.689 48.5333C151.415 47.4667 154.407 46.9333 157.667 46.9333C161.933 46.9333 165.696 47.7037 168.956 49.2444C172.215 50.7259 174.763 52.2667 176.6 53.8667L173.667 66.1333C172.719 64.4741 171.415 62.8741 169.756 61.3333C168.096 59.7333 166.2 58.4296 164.067 57.4222C161.933 56.3556 159.652 55.8222 157.222 55.8222C154.852 55.8222 152.778 56.3259 151 57.3333C149.281 58.2815 147.919 59.5852 146.911 61.2444C145.963 62.8444 145.489 64.6815 145.489 66.7556C145.489 69.1259 146.022 71.0815 147.089 72.6222C148.215 74.163 149.459 75.3778 150.822 76.2667C152.244 77.1556 153.4 77.837 154.289 78.3111L164.244 83.2889C165.43 83.8815 166.911 84.7111 168.689 85.7778C170.526 86.8444 172.333 88.2667 174.111 90.0444C175.889 91.763 177.37 93.8963 178.556 96.4444C179.741 98.9333 180.333 101.956 180.333 105.511C180.333 110.074 179.237 114.133 177.044 117.689C174.911 121.244 171.978 124.03 168.244 126.044C164.511 128.059 160.244 129.067 155.444 129.067ZM217.003 128.711C213.329 128.711 209.892 128 206.692 126.578C203.492 125.156 200.647 123.2 198.158 120.711C195.729 118.163 193.832 115.259 192.469 112C191.106 108.681 190.425 105.126 190.425 101.333C190.425 97.5407 191.106 94.0148 192.469 90.7556C193.832 87.437 195.729 84.5333 198.158 82.0444C200.647 79.4963 203.492 77.5111 206.692 76.0889C209.892 74.6667 213.329 73.9556 217.003 73.9556C220.677 73.9556 224.114 74.637 227.314 76C230.573 77.363 233.388 79.2593 235.758 81.6889V74.6667H244.647V128H235.758V120.978C233.388 123.348 230.573 125.244 227.314 126.667C224.114 128.03 220.677 128.711 217.003 128.711ZM218.247 120C221.625 120 224.677 119.17 227.403 117.511C230.188 115.793 232.381 113.541 233.981 110.756C235.64 107.911 236.469 104.77 236.469 101.333C236.469 97.8963 235.64 94.7852 233.981 92C232.381 89.1556 230.188 86.9037 227.403 85.2444C224.677 83.5259 221.625 82.6667 218.247 82.6667C214.869 82.6667 211.788 83.5259 209.003 85.2444C206.277 86.9037 204.084 89.1556 202.425 92C200.825 94.7852 200.025 97.8963 200.025 101.333C200.025 104.77 200.825 107.911 202.425 110.756C204.084 113.541 206.277 115.793 209.003 117.511C211.788 119.17 214.869 120 218.247 120ZM261.658 128V42.6667H271.258V128H261.658ZM313.706 129.067C309.498 129.067 305.617 128.356 302.061 126.933C298.506 125.452 295.424 123.437 292.817 120.889C290.209 118.341 288.165 115.348 286.683 111.911C285.261 108.474 284.55 104.77 284.55 100.8C284.55 97.0074 285.231 93.4815 286.594 90.2222C288.017 86.9037 289.972 84 292.461 81.5111C294.95 79.0222 297.824 77.0963 301.083 75.7333C304.402 74.3111 307.928 73.6 311.661 73.6C316.58 73.6 321.083 74.7852 325.172 77.1556C329.261 79.4667 332.52 82.6074 334.95 86.5778C337.38 90.5481 338.594 95.0519 338.594 100.089V104H303.75C302.209 104 300.639 103.941 299.039 103.822C297.439 103.704 295.869 103.526 294.328 103.289C294.743 106.43 295.839 109.274 297.617 111.822C299.454 114.37 301.765 116.385 304.55 117.867C307.335 119.289 310.417 120 313.794 120C317.172 120 320.313 119.23 323.217 117.689C326.12 116.148 328.461 114.104 330.239 111.556L332.906 122.489C330.357 124.563 327.424 126.193 324.106 127.378C320.846 128.504 317.38 129.067 313.706 129.067ZM294.061 96.8C295.661 96.5037 297.261 96.2963 298.861 96.1778C300.52 96.0593 302.15 96 303.75 96H321.439C322.743 96 324.017 96.0593 325.261 96.1778C326.565 96.237 327.869 96.3259 329.172 96.4444C328.639 93.6593 327.513 91.2 325.794 89.0667C324.076 86.9333 322.002 85.2444 319.572 84C317.143 82.7556 314.506 82.1333 311.661 82.1333C308.757 82.1333 306.061 82.8148 303.572 84.1778C301.143 85.4815 299.098 87.2296 297.439 89.4222C295.78 91.6148 294.654 94.0741 294.061 96.8ZM351.408 128V74.6667H360.297V83.2889C362.253 80.1481 364.771 77.7481 367.853 76.0889C370.994 74.4296 374.371 73.6 377.986 73.6C381.779 73.6 385.275 74.5481 388.475 76.4444C391.734 78.2815 394.371 80.9778 396.386 84.5333C398.401 88.0296 399.408 92.2963 399.408 97.3333V128H389.808V98.6667C389.808 94.4593 388.534 90.7556 385.986 87.5556C383.497 84.2963 379.971 82.6667 375.408 82.6667C372.919 82.6667 370.579 83.2889 368.386 84.5333C366.194 85.7185 364.416 87.4667 363.053 89.7778C361.69 92.0889 361.008 94.963 361.008 98.4V128H351.408ZM429.186 129.067C426.46 129.067 423.527 128.563 420.386 127.556C417.305 126.489 414.638 124.741 412.386 122.311L415.053 111.822C416.712 114.607 418.845 116.83 421.453 118.489C424.06 120.089 426.845 120.889 429.808 120.889C432.653 120.889 434.786 120.207 436.208 118.844C437.631 117.422 438.342 115.704 438.342 113.689C438.342 111.378 437.571 109.689 436.031 108.622C434.549 107.556 433.216 106.815 432.031 106.4L424.831 103.644C423.527 103.111 421.956 102.341 420.119 101.333C418.282 100.267 416.682 98.7556 415.319 96.8C413.956 94.8444 413.275 92.2963 413.275 89.1556C413.275 86.3111 413.956 83.7037 415.319 81.3333C416.682 78.963 418.608 77.0963 421.097 75.7333C423.586 74.3111 426.519 73.6 429.897 73.6C432.564 73.6 435.349 74.0741 438.253 75.0222C441.156 75.9704 443.616 77.5704 445.631 79.8222L442.964 90.3111C442.016 88.5926 440.831 87.1111 439.408 85.8667C437.986 84.563 436.445 83.5556 434.786 82.8444C433.127 82.1333 431.408 81.7778 429.631 81.7778C427.201 81.7778 425.275 82.4593 423.853 83.8222C422.49 85.1852 421.808 86.7556 421.808 88.5333C421.808 89.9556 422.282 91.2296 423.231 92.3556C424.179 93.4815 425.601 94.4 427.497 95.1111L434.697 97.8667C436.001 98.3407 437.601 99.1111 439.497 100.178C441.453 101.244 443.171 102.785 444.653 104.8C446.134 106.815 446.875 109.541 446.875 112.978C446.875 116.178 446.105 118.993 444.564 121.422C443.023 123.793 440.919 125.659 438.253 127.022C435.645 128.385 432.623 129.067 429.186 129.067ZM486.206 129.067C481.998 129.067 478.117 128.356 474.561 126.933C471.006 125.452 467.924 123.437 465.317 120.889C462.709 118.341 460.665 115.348 459.183 111.911C457.761 108.474 457.05 104.77 457.05 100.8C457.05 97.0074 457.731 93.4815 459.094 90.2222C460.517 86.9037 462.472 84 464.961 81.5111C467.45 79.0222 470.324 77.0963 473.583 75.7333C476.902 74.3111 480.428 73.6 484.161 73.6C489.08 73.6 493.583 74.7852 497.672 77.1556C501.761 79.4667 505.02 82.6074 507.45 86.5778C509.88 90.5481 511.094 95.0519 511.094 100.089V104H476.25C474.709 104 473.139 103.941 471.539 103.822C469.939 103.704 468.369 103.526 466.828 103.289C467.243 106.43 468.339 109.274 470.117 111.822C471.954 114.37 474.265 116.385 477.05 117.867C479.835 119.289 482.917 120 486.294 120C489.672 120 492.813 119.23 495.717 117.689C498.62 116.148 500.961 114.104 502.739 111.556L505.406 122.489C502.857 124.563 499.924 126.193 496.606 127.378C493.346 128.504 489.88 129.067 486.206 129.067ZM466.561 96.8C468.161 96.5037 469.761 96.2963 471.361 96.1778C473.02 96.0593 474.65 96 476.25 96H493.939C495.243 96 496.517 96.0593 497.761 96.1778C499.065 96.237 500.369 96.3259 501.672 96.4444C501.139 93.6593 500.013 91.2 498.294 89.0667C496.576 86.9333 494.502 85.2444 492.072 84C489.643 82.7556 487.006 82.1333 484.161 82.1333C481.257 82.1333 478.561 82.8148 476.072 84.1778C473.643 85.4815 471.598 87.2296 469.939 89.4222C468.28 91.6148 467.154 94.0741 466.561 96.8Z" fill="#F4F4F4"/>
</svg>
